Coordinates
version=1
nRows=10
nColumns=22
inDegrees=yes

Units are S.I. units (second, meters, Newtons, ...)
If the header above contains a line with 'inDegrees', this indicates whether rotational values are in degrees (yes) or radians (no).

endheader
time	pelvis_tilt	pelvis_list	pelvis_rotation	pelvis_tx	pelvis_ty	pelvis_tz	hip_flexion_r	hip_adduction_r	hip_rotation_r	knee_angle_r	ankle_angle_r	subtalar_angle_r	hip_flexion_l	hip_adduction_l	hip_rotation_l	knee_angle_l	ankle_angle_l	subtalar_angle_l	lumbar_extension	lumbar_bending	lumbar_rotation
      0.01000000	      1.98311877	      3.91809511	    177.46809769	      0.20615818	      1.02041252	      0.93211478	      0.84999150	      3.16628009	     -2.67604681	     -8.79299037	      8.04773621	      0.68797494	     -0.51291723	     -5.38736074	    -11.90965549	     -7.40401394	     10.72450968	      0.05638217	     -1.71270991	      0.66874392	     -0.51365960
      0.02000000	      2.00044395	      3.91402724	    177.46210096	      0.20599471	      1.02039330	      0.93229952	      0.86248562	      3.14777703	     -2.67609066	     -8.79882631	      8.02371655	      0.67633892	     -0.51609594	     -5.37025611	    -11.91790644	     -7.38300352	     10.74608177	      0.05354535	     -1.71200363	      0.67005131	     -0.50776309
      0.03000000	      2.01553628	      3.91805184	    177.46552429	      0.20582236	      1.02038608	      0.93252719	      0.86629901	      3.13568361	     -2.67447189	     -8.79569320	      8.02345540	      0.67555092	     -0.51298492	     -5.36213379	    -11.92050523	     -7.37778028	     10.74729887	      0.05323093	     -1.72369148	      0.67807043	     -0.50529288
      0.04000000	      2.05408840	      3.89347848	    177.45669763	      0.20559434	      1.02034860	      0.93279083	      0.89562879	      3.08905634	     -2.66224429	     -8.79673120	      8.01475426	      0.68273205	     -0.50097215	     -5.31788599	    -11.93215537	     -7.34696647	     10.76251831	      0.04610016	     -1.70093413	      0.65756072	     -0.50930565
      0.05000000	      2.12265561	      3.85513278	    177.45293305	      0.20542309	      1.02027417	      0.93308723	      0.97339411	      3.02600756	     -2.65220176	     -8.82511641	      8.05111716	      0.72722740	     -0.43162640	     -5.26282886	    -11.93274917	     -7.35465416	     10.74700211	      0.03328149	     -1.65793764	      0.61680518	     -0.49967199
      0.06000000	      2.14203976	      3.86062198	    177.45496674	      0.20521151	      1.02027822	      0.93342028	      0.97822976	      3.00702787	     -2.64999067	     -8.82092042	      8.05119771	      0.72971774	     -0.42238404	     -5.25148939	    -11.93141469	     -7.35577956	     10.74883989	      0.03308426	     -1.67760661	      0.62937374	     -0.49777733
      0.07000000	      2.22973559	      3.80224905	    177.48171505	      0.20504377	      1.02017210	      0.93384244	      1.06959151	      2.91484062	     -2.66138687	     -8.83773952	      8.08433898	      0.83577146	     -0.29242366	     -5.17747581	    -11.89255569	     -7.43060138	     10.79636370	      0.02853038	     -1.61654879	      0.57094526	     -0.54365340
      0.08000000	      2.30122642	      3.78296123	    177.51446867	      0.20492111	      1.02009133	      0.93428946	      1.14803692	      2.86326278	     -2.67577327	     -8.86327544	      8.12166169	      0.93755448	     -0.16031591	     -5.14880053	    -11.84689332	     -7.53921286	     10.83401533	      0.03273261	     -1.59092199	      0.55843547	     -0.59021953
      0.09000000	      2.38476410	      3.76895938	    177.55202876	      0.20480425	      1.01999230	      0.93477571	      1.24148697	      2.81498914	     -2.71702292	     -8.89161424	      8.16142323	      1.05670415	      0.00018498	     -5.12665857	    -11.77762099	     -7.67681628	     10.88509966	      0.04433963	     -1.55402469	      0.55177038	     -0.62342715
      0.10000000	      2.46225331	      3.75444821	    177.60104309	      0.20471275	      1.01989633	      0.93531636	      1.32942184	      2.76377942	     -2.74067666	     -8.92244624	      8.19430484	      1.17101981	      0.18282410	     -5.10526338	    -11.70568271	     -7.86081279	     10.95121114	      0.05416191	     -1.53146658	      0.54878471	     -0.69283260
